<svg width="106" height="48" viewBox="0 0 106 48" fill="none" xmlns="http://www.w3.org/2000/svg">
<g clip-path="url(#clip0_44_780)">
<path d="M4.48874e-06 30.5394V2.20285C-0.00688398 1.91194 0.0450014 1.62266 0.152524 1.35287C0.260046 1.08308 0.420906 0.838476 0.625172 0.634144C0.820021 0.42999 1.05397 0.268431 1.31266 0.159376C1.57134 0.0503201 1.84925 -0.00393514 2.12936 -1.54161e-05H14.6708C21.1639 -1.54161e-05 25.8865 1.31598 28.8386 3.94795C31.7906 6.57991 33.2681 10.7122 33.2713 16.3449C33.2713 21.9648 31.7937 26.0876 28.8386 28.7132C25.8834 31.3388 21.1608 32.6516 14.6708 32.6516H2.12936C1.85162 32.6566 1.57567 32.6056 1.31748 32.5016C1.05928 32.3977 0.823991 32.2429 0.625172 32.0461C0.420179 31.8554 0.258186 31.622 0.150286 31.362C0.0423858 31.102 -0.00885592 30.8214 4.48874e-06 30.5394ZM8.4612 26.1909H14.4263C18.4501 26.1909 21.1874 25.4471 22.6384 23.9595C24.0893 22.4718 24.8148 19.9289 24.8148 16.3306C24.8148 12.7259 24.0893 10.183 22.6384 8.70168C21.1874 7.22041 18.4501 6.47343 14.4263 6.46072H8.4612V26.1909Z" fill="white"/>
<path d="M45.3613 24.7557V24.7796H49.1689C49.5778 24.7796 49.9773 24.7796 50.3722 24.7557H45.3613Z" fill="#84C551"/>
<path d="M73.2643 4.30078V2.15993C73.2552 1.87377 73.304 1.58875 73.4078 1.32249C73.5115 1.05624 73.668 0.814419 73.8676 0.61197C74.0672 0.409522 74.3056 0.250758 74.5681 0.145496C74.8306 0.0402344 75.1116 -0.00929405 75.3937 -1.31368e-05H103.866C104.148 -0.00999923 104.429 0.0390578 104.692 0.14407C104.955 0.249083 105.193 0.407805 105.393 0.610399C105.593 0.812993 105.749 1.05511 105.853 1.32168C105.957 1.58825 106.005 1.87359 105.995 2.15993V4.30078C106.004 4.58482 105.954 4.8676 105.851 5.13167C105.748 5.39574 105.592 5.6355 105.393 5.83611C105.191 6.03493 104.952 6.19056 104.69 6.29377C104.427 6.39697 104.147 6.44561 103.866 6.43686H93.8579V30.5394C93.8634 30.8172 93.8116 31.0932 93.7055 31.3494C93.5994 31.6056 93.4416 31.8365 93.2421 32.027C93.0464 32.224 92.8136 32.3791 92.5576 32.4832C92.3017 32.5872 92.0277 32.638 91.752 32.6325H87.5214C87.245 32.6383 86.9702 32.5877 86.7134 32.4837C86.4566 32.3797 86.2231 32.2244 86.0266 32.027C85.8272 31.8365 85.6693 31.6056 85.5633 31.3494C85.4572 31.0932 85.4053 30.8172 85.4108 30.5394V6.45118H75.4031C75.1225 6.45983 74.843 6.41109 74.5814 6.30788C74.3197 6.20467 74.0812 6.04908 73.8801 5.8504C73.6766 5.64988 73.5168 5.40845 73.4108 5.14159C73.3047 4.87473 73.2548 4.58834 73.2643 4.30078Z" fill="white"/>
<path d="M0.629701 45.7876V39.6654C0.628718 39.6019 0.64026 39.5388 0.66367 39.4798C0.687081 39.4209 0.721906 39.3673 0.766038 39.3222C0.808286 39.2787 0.858824 39.2444 0.914598 39.2214C0.970372 39.1985 1.03018 39.1873 1.09036 39.1886H2.0399C2.09933 39.1877 2.15835 39.199 2.21331 39.222C2.26827 39.2449 2.31804 39.279 2.35957 39.3222C2.4037 39.3673 2.43847 39.4209 2.46188 39.4798C2.48529 39.5388 2.49683 39.6019 2.49585 39.6654V44.8483H6.72645C6.78709 44.8467 6.84738 44.8582 6.9033 44.8821C6.95922 44.9059 7.00952 44.9415 7.05082 44.9866C7.13482 45.075 7.18192 45.1928 7.1824 45.3156V45.7924C7.18072 45.9135 7.1337 46.0294 7.05082 46.1166C7.00858 46.1601 6.95798 46.1944 6.90221 46.2174C6.84643 46.2403 6.78663 46.2514 6.72645 46.2501H1.09977C0.979389 46.2509 0.863324 46.2048 0.775449 46.1214C0.727675 46.0807 0.689673 46.0295 0.664416 45.9717C0.639159 45.9138 0.627288 45.8509 0.629701 45.7876Z" fill="#84C551"/>
<path d="M8.29214 45.6208C7.80847 45.0419 7.54297 44.3078 7.54297 43.549C7.54297 42.7903 7.80847 42.0561 8.29214 41.4773C8.88866 41.0103 9.62094 40.7569 10.3745 40.7569C11.1281 40.7569 11.8604 41.0103 12.4569 41.4773C12.7158 41.7412 12.9164 42.0579 13.0453 42.4065C13.1741 42.7551 13.2283 43.1275 13.2043 43.499V43.7803C13.2057 43.8618 13.1752 43.9406 13.1197 43.9996C13.0914 44.0282 13.0575 44.0506 13.0203 44.0653C12.9832 44.0801 12.9434 44.0869 12.9035 44.0854H9.25103C9.25409 44.4109 9.37639 44.7237 9.59417 44.9628C9.86216 45.1715 10.1978 45.2702 10.5343 45.2393C10.6932 45.2585 10.8544 45.2419 11.0063 45.1909C11.1582 45.1398 11.2972 45.0554 11.4133 44.9437C11.4829 44.8522 11.5718 44.7778 11.6735 44.7258C11.7752 44.6738 11.8871 44.6456 12.0009 44.6433H12.7248C12.7648 44.6418 12.8046 44.6487 12.8418 44.6634C12.879 44.6782 12.9127 44.7006 12.941 44.7291C12.969 44.758 12.9909 44.7923 13.0054 44.83C13.02 44.8677 13.0269 44.908 13.0257 44.9484C13.0257 45.9021 12.142 46.3789 10.3745 46.3789C9.60927 46.4126 8.86157 46.1404 8.29214 45.6208ZM9.23227 43.0269H11.4886C11.4557 42.2545 11.0843 41.8683 10.3651 41.8683C9.64589 41.8683 9.28864 42.2545 9.24633 43.0269H9.23227Z" fill="#84C551"/>
<path d="M16.612 45.1725L17.2795 45.1106H17.4582C17.498 45.1093 17.5377 45.1163 17.5749 45.1311C17.612 45.1458 17.6459 45.1681 17.6744 45.1964C17.7022 45.2244 17.724 45.2579 17.7386 45.2948C17.7531 45.3317 17.76 45.3712 17.7589 45.4109V45.9402C17.7585 45.9762 17.7508 46.0117 17.7362 46.0445C17.7217 46.0773 17.7006 46.1067 17.6744 46.1309C17.6161 46.1898 17.5399 46.2268 17.4582 46.2358C17.0314 46.3106 16.5985 46.3442 16.1655 46.336C14.7803 46.336 14.0862 45.5985 14.0831 44.1236V39.489C14.0817 39.4075 14.1121 39.3287 14.1677 39.2697C14.1955 39.2421 14.2287 39.2207 14.2651 39.2067C14.3015 39.1928 14.3403 39.1866 14.3792 39.1886H15.4651C15.5039 39.1866 15.5427 39.1928 15.5792 39.2067C15.6156 39.2207 15.6487 39.2421 15.6766 39.2697C15.7321 39.3287 15.7625 39.4075 15.7612 39.489V41.134H17.1103C17.1885 41.1321 17.2644 41.1612 17.3218 41.2151C17.35 41.2438 17.372 41.2781 17.3866 41.3158C17.4012 41.3535 17.4079 41.3939 17.4064 41.4344V42.0161C17.4079 42.0566 17.4012 42.0969 17.3866 42.1347C17.372 42.1724 17.35 42.2067 17.3218 42.2354C17.294 42.263 17.2608 42.2845 17.2244 42.2984C17.188 42.3124 17.1492 42.3185 17.1103 42.3165H15.7612V44.1188C15.7425 44.3962 15.8245 44.6709 15.9915 44.8912C16.0669 44.9831 16.162 45.0563 16.2696 45.105C16.3771 45.1538 16.4943 45.1769 16.612 45.1725Z" fill="#84C551"/>
<path d="M19.6251 39.1886C20.0388 39.1886 20.2503 39.3412 20.2503 39.6654C20.2462 39.7693 20.2222 39.8713 20.1798 39.9658L19.6016 41.4487C19.5375 41.6066 19.4338 41.7446 19.3007 41.8492C19.1678 41.9578 19.0013 42.0152 18.8307 42.0113H18.638C18.4359 42.0113 18.3089 41.9684 18.2525 41.8826C18.2019 41.8028 18.1742 41.7104 18.1726 41.6156C18.1677 41.5266 18.1677 41.4375 18.1726 41.3486L18.4594 39.7656C18.4948 39.6022 18.5907 39.4589 18.7273 39.3651C18.8627 39.2612 19.0275 39.2043 19.1973 39.2029L19.6251 39.1886Z" fill="#84C551"/>
<path d="M20.9414 42.3404C20.9414 41.2755 21.7844 40.7446 23.4704 40.7478C25.2378 40.7478 26.1263 41.2246 26.1263 42.1782C26.1269 42.2179 26.1197 42.2572 26.105 42.2939C26.0904 42.3307 26.0686 42.3641 26.0409 42.3921C26.0133 42.4201 25.9804 42.4422 25.9442 42.4571C25.908 42.4719 25.8692 42.4793 25.8301 42.4786H25.1062C24.9923 42.4794 24.8798 42.453 24.7778 42.4017C24.6758 42.3503 24.5869 42.2754 24.5186 42.183C24.393 42.0666 24.2436 41.9798 24.0811 41.9287C23.9186 41.8776 23.747 41.8635 23.5785 41.8874C22.9517 41.8874 22.6383 42.0463 22.6383 42.3642C22.6383 42.512 22.7653 42.6312 23.0144 42.7313C23.3192 42.8466 23.634 42.9328 23.9545 42.9888C24.3178 43.0641 24.6771 43.1579 25.031 43.2701C25.3831 43.374 25.7055 43.5621 25.9712 43.8184C26.0948 43.9429 26.1919 44.0917 26.2566 44.2557C26.3212 44.4198 26.3521 44.5955 26.3472 44.7721C26.3472 45.8306 25.4572 46.3598 23.6772 46.3598C21.8972 46.3598 21.0088 45.883 21.0119 44.9294C21.0106 44.889 21.0175 44.8487 21.0322 44.8111C21.0468 44.7735 21.0689 44.7393 21.0971 44.7107C21.1253 44.6821 21.159 44.6596 21.1961 44.6448C21.2332 44.6299 21.2729 44.6229 21.3128 44.6243H22.0367C22.1509 44.6244 22.2635 44.6517 22.3655 44.7038C22.4676 44.756 22.5562 44.8316 22.6243 44.9246C22.7506 45.0399 22.9 45.1261 23.0623 45.1771C23.2246 45.2281 23.396 45.2429 23.5644 45.2203C24.3024 45.2203 24.6738 45.0629 24.6738 44.7435C24.6738 44.5956 24.5468 44.4717 24.2977 44.3763C23.9918 44.262 23.6775 44.1727 23.3576 44.1093C22.9909 44.033 22.6337 43.9377 22.2764 43.828C21.933 43.7232 21.62 43.5349 21.3645 43.2797C21.233 43.1619 21.1273 43.0175 21.0544 42.8557C20.9816 42.6938 20.943 42.5183 20.9414 42.3404Z" fill="#84C551"/>
<path d="M31.0339 45.1535C30.8012 44.9053 30.6211 44.6114 30.5047 44.29C30.3883 43.9685 30.338 43.6263 30.3569 43.2844C30.3386 42.9348 30.3984 42.5855 30.5319 42.2627C30.6654 41.9398 30.8691 41.6518 31.1278 41.4201C31.7602 40.9329 32.5448 40.6941 33.3371 40.7478C33.8286 40.7516 34.3184 40.806 34.799 40.9099C35.1962 40.9784 35.5802 41.1104 35.9366 41.3009V45.8544C35.9599 46.1631 35.9073 46.4728 35.7834 46.7558C35.6595 47.0387 35.4682 47.2861 35.2268 47.4755C34.63 47.8589 33.9295 48.0424 33.2243 48C32.5477 48.0323 31.8719 47.9202 31.2407 47.671C31.0291 47.5863 30.8486 47.4373 30.724 47.2443C30.5994 47.0514 30.5369 46.8239 30.545 46.5934C30.5435 46.5529 30.5503 46.5126 30.5648 46.4748C30.5794 46.4371 30.6014 46.4028 30.6295 46.3741C30.658 46.3457 30.6919 46.3235 30.729 46.3088C30.7662 46.294 30.8059 46.2871 30.8458 46.2883H31.5697C31.6761 46.2849 31.7819 46.3063 31.8789 46.351C31.9759 46.3956 32.0615 46.4622 32.1291 46.5457C32.2507 46.67 32.3984 46.765 32.5611 46.8236C32.7238 46.8822 32.8975 46.903 33.0692 46.8843C33.3992 46.9203 33.7314 46.8394 34.0093 46.6554C34.1038 46.5469 34.1747 46.4197 34.2176 46.2817C34.2606 46.1437 34.2745 45.9981 34.2585 45.8544V45.6255C33.786 45.7532 33.2996 45.8204 32.8107 45.8257C32.4852 45.8402 32.1602 45.7882 31.8549 45.6727C31.5497 45.5572 31.2705 45.3806 31.0339 45.1535ZM33.2384 41.9398C32.4722 41.9398 32.0868 42.3832 32.0868 43.2844C32.0868 44.1855 32.4629 44.6337 33.2103 44.6337C33.5643 44.6284 33.9164 44.5788 34.2585 44.4859V42.0494C33.925 41.9658 33.5818 41.9289 33.2384 41.9398Z" fill="#84C551"/>
<path d="M40.8065 42.0972L40.0591 42.0686C39.8099 42.0865 39.5679 42.1615 39.3514 42.2878C39.1348 42.4141 38.9493 42.5886 38.8087 42.798V45.9402C38.8098 45.9799 38.8029 46.0195 38.7883 46.0564C38.7738 46.0933 38.7519 46.1268 38.7241 46.1548C38.6963 46.1824 38.6631 46.2038 38.6267 46.2178C38.5903 46.2317 38.5514 46.2378 38.5125 46.2358H37.4267C37.3878 46.2387 37.3486 46.233 37.3121 46.219C37.2755 46.205 37.2424 46.1831 37.2151 46.1548C37.1873 46.1268 37.1655 46.0933 37.1509 46.0564C37.1364 46.0195 37.1295 45.9799 37.1306 45.9402V41.1722C37.1291 41.1317 37.1359 41.0913 37.1504 41.0536C37.165 41.0158 37.187 40.9815 37.2151 40.9528C37.2428 40.9246 37.2758 40.9024 37.3122 40.8877C37.3486 40.8729 37.3875 40.8659 37.4267 40.867H38.5125C38.5517 40.8656 38.5908 40.8725 38.6272 40.8873C38.6637 40.9021 38.6967 40.9244 38.7241 40.9528C38.7523 40.9815 38.7743 41.0158 38.7888 41.0536C38.8034 41.0913 38.8101 41.1317 38.8087 41.1722V41.4821C39.0966 41.2602 39.4129 41.079 39.7488 40.9433C40.1352 40.8142 40.5409 40.7545 40.9475 40.7668C41.0276 40.767 41.1048 40.7976 41.1637 40.8527C41.1911 40.881 41.2127 40.9146 41.2272 40.9514C41.2417 40.9882 41.2489 41.0276 41.2484 41.0672V41.8158C41.2503 41.8557 41.2438 41.8955 41.2292 41.9325C41.2146 41.9695 41.1922 42.0029 41.1637 42.0304C41.1352 42.0587 41.1014 42.081 41.0643 42.0957C41.0271 42.1105 40.9874 42.1174 40.9475 42.1162L40.8065 42.0972Z" fill="#84C551"/>
<path d="M42.4095 45.6303C41.9211 45.0482 41.6528 44.3087 41.6528 43.5443C41.6528 42.7798 41.9211 42.0404 42.4095 41.4583C43.0429 40.9961 43.8034 40.7475 44.5836 40.7475C45.3638 40.7475 46.1243 40.9961 46.7576 41.4583C47.2461 42.0404 47.5143 42.7798 47.5143 43.5443C47.5143 44.3087 47.2461 45.0482 46.7576 45.6303C46.1221 46.0871 45.3624 46.3324 44.5836 46.3324C43.8047 46.3324 43.045 46.0871 42.4095 45.6303ZM43.6364 42.2641C43.4386 42.6593 43.3355 43.0963 43.3355 43.5395C43.3355 43.9827 43.4386 44.4197 43.6364 44.815C43.8858 45.0677 44.224 45.2096 44.5765 45.2096C44.9291 45.2096 45.2672 45.0677 45.5166 44.815C45.7144 44.4197 45.8175 43.9827 45.8175 43.5395C45.8175 43.0963 45.7144 42.6593 45.5166 42.2641C45.2649 42.0159 44.9276 41.8771 44.5765 41.8771C44.2254 41.8771 43.8882 42.0159 43.6364 42.2641Z" fill="#84C551"/>
<path d="M47.9044 41.2818C47.8806 41.2124 47.8649 41.1404 47.8574 41.0672C47.8574 40.9242 47.942 40.8527 48.1019 40.8479H49.0044C49.1486 40.8463 49.2904 40.8859 49.4134 40.9624C49.5283 41.0376 49.6145 41.1502 49.6578 41.2818L50.4522 43.9329L51.2372 41.2818C51.2639 41.1545 51.3343 41.0409 51.4359 40.9614C51.5375 40.8819 51.6637 40.8417 51.7919 40.8479H52.6474C52.776 40.8397 52.9032 40.8792 53.0053 40.959C53.1073 41.0388 53.1772 41.1535 53.2021 41.2818L53.9871 43.9329L54.7815 41.2818C54.825 41.149 54.9132 41.0359 55.0306 40.9624C55.1531 40.8847 55.2952 40.8449 55.4396 40.8479H56.3374C56.4973 40.8479 56.5772 40.9242 56.5819 41.0672C56.5797 41.1407 56.5654 41.2132 56.5395 41.2818L55.0683 45.8067C55.0266 45.9366 54.9419 46.0477 54.8285 46.1214C54.7167 46.1956 54.5861 46.2353 54.4525 46.2358H53.7709C53.6351 46.2354 53.5025 46.1939 53.3901 46.1166C53.2778 46.0451 53.1944 45.9352 53.1551 45.8067L52.215 42.8744L51.2748 45.8067C51.2336 45.9356 51.1486 46.0453 51.0351 46.1166C50.9247 46.1944 50.7935 46.236 50.6591 46.2358H49.9868C49.8547 46.2355 49.7255 46.1957 49.6155 46.1214C49.5009 46.0479 49.4146 45.9369 49.371 45.8067L47.9044 41.2818Z" fill="#84C551"/>
<path d="M63.2805 45.1725L63.9479 45.1106H64.1266C64.1664 45.1093 64.2062 45.1163 64.2433 45.1311C64.2805 45.1458 64.3143 45.1681 64.3428 45.1964C64.3706 45.2244 64.3925 45.2579 64.407 45.2948C64.4216 45.3317 64.4285 45.3712 64.4274 45.4109V45.9402C64.427 45.9762 64.4192 46.0117 64.4047 46.0445C64.3901 46.0773 64.3691 46.1067 64.3428 46.1309C64.2846 46.1898 64.2083 46.2268 64.1266 46.2358C63.6998 46.3106 63.2669 46.3442 62.8339 46.336C61.4487 46.336 60.7546 45.5985 60.7515 44.1236V39.489C60.7502 39.4075 60.7805 39.3287 60.8361 39.2697C60.8639 39.2421 60.8971 39.2207 60.9335 39.2067C60.9699 39.1928 61.0088 39.1866 61.0477 39.1886H62.1335C62.1723 39.1866 62.2112 39.1928 62.2476 39.2067C62.284 39.2207 62.3172 39.2421 62.345 39.2697C62.4006 39.3287 62.431 39.4075 62.4296 39.489V41.134H63.7834C63.86 41.1333 63.934 41.1623 63.9903 41.2151C64.0191 41.2436 64.0418 41.2777 64.0572 41.3154C64.0725 41.3531 64.0801 41.3936 64.0796 41.4344V42.0161C64.0801 42.0569 64.0725 42.0974 64.0572 42.1351C64.0418 42.1728 64.0191 42.2069 63.9903 42.2354C63.963 42.2624 63.9306 42.2835 63.895 42.2974C63.8595 42.3114 63.8215 42.3178 63.7834 42.3165H62.4296V44.1188C62.4109 44.3962 62.4929 44.6709 62.6599 44.8912C62.7353 44.9831 62.8305 45.0563 62.938 45.105C63.0456 45.1538 63.1627 45.1769 63.2805 45.1725Z" fill="#84C551"/>
<path d="M65.6308 45.6303C65.1423 45.0482 64.874 44.3087 64.874 43.5443C64.874 42.7798 65.1423 42.0404 65.6308 41.4583C66.2641 40.9961 67.0246 40.7475 67.8048 40.7475C68.585 40.7475 69.3455 40.9961 69.9789 41.4583C70.4673 42.0404 70.7356 42.7798 70.7356 43.5443C70.7356 44.3087 70.4673 45.0482 69.9789 45.6303C69.3434 46.0871 68.5837 46.3324 67.8048 46.3324C67.026 46.3324 66.2663 46.0871 65.6308 45.6303ZM66.8576 42.2641C66.6599 42.6593 66.5568 43.0963 66.5568 43.5395C66.5568 43.9827 66.6599 44.4197 66.8576 44.815C66.9701 44.9549 67.1144 45.065 67.2782 45.1356C67.4421 45.2062 67.6204 45.2353 67.7978 45.2203C67.975 45.2341 68.1529 45.2044 68.3166 45.1339C68.4802 45.0634 68.6247 44.954 68.7379 44.815C68.9387 44.4207 69.0434 43.9833 69.0434 43.5395C69.0434 43.0957 68.9387 42.6584 68.7379 42.2641C68.6232 42.1274 68.4782 42.0202 68.3148 41.9514C68.1513 41.8826 67.9742 41.8542 67.7978 41.8683C67.6212 41.8526 67.4435 41.8804 67.2798 41.9493C67.1162 42.0182 66.9713 42.1261 66.8576 42.2641Z" fill="#84C551"/>
<path d="M72.0001 45.1535C71.7675 44.9054 71.5874 44.6115 71.471 44.29C71.3546 43.9686 71.3043 43.6263 71.3232 43.2844C71.3049 42.9348 71.3646 42.5856 71.4981 42.2627C71.6316 41.9399 71.8354 41.6518 72.0942 41.4201C72.7277 40.9319 73.5143 40.693 74.3081 40.7478C74.798 40.7519 75.2862 40.8063 75.7653 40.9099C76.1638 40.9795 76.5491 41.1114 76.9076 41.3009V45.8544C76.9304 46.1635 76.877 46.4735 76.7523 46.7565C76.6276 47.0395 76.4354 47.2866 76.1931 47.4756C75.5978 47.8583 74.899 48.0417 74.1953 48C73.5187 48.0332 72.8427 47.921 72.2117 47.671C71.9997 47.587 71.8188 47.4381 71.6941 47.245C71.5695 47.0518 71.5072 46.8241 71.516 46.5934C71.5147 46.553 71.5215 46.5127 71.5362 46.4751C71.5508 46.4375 71.5729 46.4033 71.6011 46.3747C71.6293 46.3461 71.663 46.3237 71.7001 46.3088C71.7372 46.2939 71.7769 46.287 71.8168 46.2883H72.5501C72.6567 46.2842 72.7627 46.3053 72.8598 46.35C72.9569 46.3947 73.0423 46.4617 73.1095 46.5458C73.2315 46.6695 73.3793 46.7641 73.5419 46.8227C73.7045 46.8812 73.8779 46.9023 74.0496 46.8843C74.3798 46.9228 74.7127 46.8417 74.9897 46.6554C75.085 46.5474 75.1568 46.4203 75.2005 46.2823C75.2443 46.1443 75.2589 45.9985 75.2436 45.8544V45.6256C74.7695 45.7532 74.2816 45.8205 73.7911 45.8258C73.4633 45.8422 73.1356 45.7911 72.8278 45.6755C72.52 45.56 72.2384 45.3824 72.0001 45.1535ZM74.2047 41.9398C73.4385 41.9398 73.0578 42.3833 73.0578 43.2844C73.0578 44.1856 73.4291 44.6338 74.1765 44.6338C74.5321 44.6285 74.8858 44.5789 75.2295 44.486V42.0495C74.8944 41.9659 74.5497 41.9291 74.2047 41.9398Z" fill="#84C551"/>
<path d="M78.5435 45.6208C78.0599 45.0419 77.7944 44.3078 77.7944 43.549C77.7944 42.7903 78.0599 42.0561 78.5435 41.4773C79.1401 41.0103 79.8724 40.7569 80.626 40.7569C81.3795 40.7569 82.1118 41.0103 82.7083 41.4773C82.9672 41.7412 83.1678 42.0579 83.2967 42.4065C83.4255 42.7551 83.4797 43.1275 83.4557 43.499V43.7803C83.4571 43.8618 83.4267 43.9406 83.3711 43.9996C83.3428 44.0282 83.309 44.0506 83.2718 44.0653C83.2346 44.0801 83.1948 44.0869 83.1549 44.0854H79.5025C79.5056 44.4109 79.6279 44.7237 79.8456 44.9628C80.1136 45.1715 80.4493 45.2702 80.7858 45.2393C80.9447 45.2585 81.1058 45.2419 81.2577 45.1909C81.4096 45.1398 81.5486 45.0554 81.6648 44.9437C81.7344 44.8522 81.8233 44.7778 81.925 44.7258C82.0266 44.6738 82.1385 44.6456 82.2524 44.6433H82.9763C83.0162 44.642 83.0559 44.649 83.093 44.6638C83.13 44.6787 83.1637 44.7011 83.1919 44.7297C83.2201 44.7583 83.2422 44.7925 83.2569 44.8301C83.2715 44.8677 83.2784 44.908 83.2771 44.9484C83.2771 45.9021 82.3934 46.3789 80.626 46.3789C79.8607 46.4126 79.113 46.1404 78.5435 45.6208ZM79.4837 43.0269H81.74C81.7071 42.2545 81.3311 41.8683 80.6166 41.8683C79.9021 41.8683 79.5401 42.2545 79.4978 43.0269H79.4837Z" fill="#84C551"/>
<path d="M86.8825 45.1725L87.5453 45.1106H87.7287C87.8091 45.1092 87.8867 45.1401 87.9449 45.1964C87.9727 45.2244 87.9945 45.2579 88.0091 45.2948C88.0236 45.3317 88.0306 45.3712 88.0295 45.4109V45.9402C88.0291 45.9762 88.0213 46.0117 88.0067 46.0445C87.9922 46.0773 87.9711 46.1067 87.9449 46.1309C87.886 46.1889 87.8101 46.2257 87.7287 46.2358C87.3018 46.3104 86.869 46.344 86.436 46.336C85.0477 46.336 84.3536 45.5985 84.3536 44.1236V39.489C84.3522 39.4075 84.3826 39.3287 84.4382 39.2697C84.466 39.2421 84.4992 39.2207 84.5356 39.2067C84.572 39.1928 84.6108 39.1866 84.6497 39.1886H85.7356C85.7744 39.1866 85.8133 39.1928 85.8497 39.2067C85.8861 39.2207 85.9193 39.2421 85.9471 39.2697C86.0027 39.3287 86.0331 39.4075 86.0317 39.489V41.134H87.3808C87.459 41.1321 87.5349 41.1612 87.5923 41.2151C87.6205 41.2438 87.6426 41.2781 87.6571 41.3158C87.6717 41.3535 87.6784 41.3939 87.677 41.4344V42.0161C87.6784 42.0566 87.6717 42.097 87.6571 42.1347C87.6426 42.1724 87.6205 42.2067 87.5923 42.2354C87.5645 42.263 87.5313 42.2845 87.4949 42.2984C87.4585 42.3124 87.4197 42.3185 87.3808 42.3165H86.0317V44.1188C86.0131 44.3962 86.095 44.6709 86.2621 44.8912C86.3374 44.9831 86.4325 45.0563 86.5401 45.105C86.6476 45.1538 86.7648 45.1769 86.8825 45.1725Z" fill="#84C551"/>
<path d="M88.8236 45.9402V39.489C88.8222 39.4075 88.8526 39.3287 88.9082 39.2697C88.936 39.2421 88.9692 39.2207 89.0056 39.2067C89.042 39.1928 89.0808 39.1866 89.1197 39.1886H90.2056C90.2445 39.1866 90.2833 39.1928 90.3197 39.2067C90.3561 39.2207 90.3893 39.2421 90.4171 39.2697C90.4727 39.3287 90.503 39.4075 90.5017 39.489V41.463C90.9883 41.013 91.6201 40.7587 92.2785 40.7478C92.5596 40.7368 92.8401 40.783 93.1033 40.8837C93.3665 40.9845 93.6071 41.1376 93.811 41.3343C94.0238 41.5752 94.1861 41.8576 94.2879 42.1641C94.3897 42.4707 94.429 42.7951 94.4033 43.1175V45.9402C94.4043 45.9792 94.3973 46.018 94.3827 46.0542C94.3681 46.0903 94.3464 46.1229 94.3187 46.15C94.2904 46.1786 94.2565 46.201 94.2193 46.2157C94.1822 46.2305 94.1423 46.2373 94.1024 46.2358H93.0213C92.9821 46.2369 92.9431 46.2299 92.9068 46.2151C92.8704 46.2004 92.8373 46.1782 92.8097 46.15C92.782 46.1229 92.7603 46.0903 92.7457 46.0542C92.7311 46.018 92.7241 45.9792 92.7251 45.9402V43.1175C92.7251 42.3308 92.4149 41.9398 91.785 41.9398C91.5337 41.9652 91.2897 42.0406 91.0671 42.1617C90.8444 42.2828 90.6476 42.4472 90.4876 42.6455V45.9402C90.4886 45.9792 90.4816 46.018 90.4671 46.0542C90.4525 46.0903 90.4307 46.1229 90.403 46.15C90.3754 46.1782 90.3424 46.2004 90.306 46.2151C90.2696 46.2299 90.2306 46.2369 90.1915 46.2358H89.1056C89.0664 46.2369 89.0274 46.2299 88.9911 46.2151C88.9547 46.2004 88.9217 46.1782 88.8941 46.15C88.8689 46.1217 88.8497 46.0885 88.8376 46.0525C88.8254 46.0164 88.8207 45.9782 88.8236 45.9402Z" fill="#84C551"/>
<path d="M96.0533 45.6208C95.5706 45.0415 95.3057 44.3075 95.3057 43.549C95.3057 42.7905 95.5706 42.0566 96.0533 41.4773C96.6248 40.964 97.3738 40.7016 98.1358 40.7478C98.8931 40.7013 99.6384 40.9561 100.213 41.4583C100.472 41.7221 100.673 42.0389 100.802 42.3874C100.931 42.736 100.985 43.1084 100.961 43.4799V43.7612C100.962 43.8428 100.932 43.9216 100.876 43.9806C100.848 44.0091 100.814 44.0315 100.777 44.0463C100.74 44.061 100.7 44.0679 100.66 44.0664H96.9935C96.9948 44.3913 97.1154 44.7041 97.3319 44.9437C97.6003 45.1516 97.9356 45.2503 98.272 45.2203C98.4317 45.2389 98.5934 45.222 98.7459 45.171C98.8985 45.1199 99.0384 45.0359 99.1558 44.9246C99.2246 44.8324 99.3134 44.7574 99.4152 44.7053C99.5171 44.6533 99.6293 44.6255 99.7433 44.6242H100.463C100.502 44.6228 100.542 44.6296 100.579 44.6444C100.617 44.6591 100.65 44.6815 100.679 44.7101C100.707 44.739 100.729 44.7733 100.743 44.811C100.758 44.8487 100.765 44.889 100.763 44.9294C100.763 45.883 99.8797 46.3598 98.1122 46.3598C97.3576 46.3924 96.6198 46.1276 96.0533 45.6208ZM96.9935 43.027H99.2451C99.2122 42.2545 98.8408 41.8683 98.1216 41.8683C97.4024 41.8683 97.0358 42.2545 96.9935 43.027Z" fill="#84C551"/>
<path d="M105.525 42.0972L104.778 42.0686C104.529 42.0869 104.287 42.162 104.071 42.2883C103.854 42.4146 103.669 42.5888 103.528 42.798V45.9402C103.529 45.9799 103.522 46.0195 103.507 46.0564C103.493 46.0933 103.471 46.1268 103.443 46.1548C103.415 46.1824 103.382 46.2038 103.346 46.2178C103.309 46.2317 103.27 46.2378 103.232 46.2358H102.165C102.126 46.2387 102.086 46.233 102.05 46.219C102.013 46.205 101.98 46.1831 101.953 46.1548C101.925 46.1268 101.903 46.0933 101.889 46.0564C101.874 46.0195 101.867 45.9799 101.868 45.9402V41.1722C101.867 41.1317 101.874 41.0913 101.888 41.0536C101.903 41.0158 101.925 40.9815 101.953 40.9528C101.981 40.9246 102.014 40.9024 102.05 40.8877C102.086 40.8729 102.125 40.8659 102.165 40.867H103.25C103.29 40.865 103.329 40.8716 103.365 40.8864C103.402 40.9012 103.435 40.9239 103.462 40.9528C103.49 40.9815 103.512 41.0158 103.527 41.0536C103.541 41.0913 103.548 41.1317 103.546 41.1722V41.4821C103.834 41.2602 104.151 41.079 104.487 40.9433C104.873 40.8146 105.279 40.7549 105.685 40.7669C105.765 40.767 105.843 40.7976 105.901 40.8527C105.929 40.881 105.95 40.9146 105.965 40.9514C105.979 40.9882 105.987 41.0276 105.986 41.0672V41.8158C105.988 41.8557 105.982 41.8955 105.967 41.9325C105.952 41.9695 105.93 42.0029 105.901 42.0304C105.873 42.0587 105.839 42.081 105.802 42.0957C105.765 42.1105 105.725 42.1174 105.685 42.1162L105.525 42.0972Z" fill="#84C551"/>
<path d="M36.7261 24.7558V24.7844L35.2313 30.5394C35.1825 30.7635 35.1557 30.9918 35.1514 31.2212C35.1744 31.5534 35.305 31.8685 35.5227 32.1176C35.6758 32.2994 35.8698 32.4412 36.0882 32.5308C36.3067 32.6204 36.5432 32.6553 36.7778 32.6326H41.2012C41.8055 32.6246 42.3897 32.4114 42.8605 32.027C43.3664 31.6541 43.7234 31.1092 43.8664 30.4917L45.3613 24.7701V24.7462L36.7261 24.7558Z" fill="#21603F"/>
<path d="M68.1692 0.0238614C68.0613 0.0143851 67.9527 0.0143851 67.8448 0.0238614H59.5622H54.5607C49.8601 0.195511 46.3268 1.36845 43.9608 3.54269C43.8479 3.64282 43.7398 3.74293 43.6364 3.85259C42.276 5.23695 41.3167 6.97372 40.863 8.87337L36.7358 24.751H50.3678C55.0465 24.5793 58.5689 23.4159 60.9349 21.2608C61.0477 21.1606 61.1558 21.0557 61.2639 20.9508C62.6456 19.5642 63.6219 17.8165 64.0843 15.9015L68.2115 0.0238614H68.1692ZM55.9192 13.7701C55.6428 14.8567 55.0787 15.846 54.2881 16.631C54.18 16.7359 54.0672 16.8408 53.9497 16.9409L53.7522 17.0983C52.8322 17.8085 51.7278 18.2311 50.5746 18.3141H47.0255L48.9952 11.0094C49.2656 9.92677 49.8194 8.93832 50.5981 8.14861C50.7062 8.04372 50.819 7.93881 50.9365 7.83868L51.1622 7.65275C52.0822 6.94249 53.1865 6.51992 54.3398 6.43687H57.8935L55.9192 13.7701Z" fill="#84C551"/>
<path d="M66.1805 15.9873C65.4945 18.9324 63.7559 21.5148 61.3012 23.2348V24.7367V30.4583C61.2907 30.7419 61.338 31.0247 61.44 31.289C61.5421 31.5532 61.6968 31.7933 61.8944 31.9942C62.092 32.1951 62.3283 32.3525 62.5886 32.4566C62.8489 32.5607 63.1276 32.6093 63.4072 32.5992H67.6378C67.9155 32.6036 68.1913 32.5524 68.4494 32.4485C68.7075 32.3446 68.9428 32.19 69.142 31.9937C69.3436 31.8043 69.5035 31.574 69.6112 31.3176C69.719 31.0612 69.7721 30.7847 69.7671 30.506V2.19333L66.1805 15.9873Z" fill="white"/>
</g>
<defs>
<clipPath id="clip0_44_780">
<rect width="106" height="48" fill="white"/>
</clipPath>
</defs>
</svg>
