<svg width="15" height="15" viewBox="0 0 15 15" fill="none" xmlns="http://www.w3.org/2000/svg">
<g clip-path="url(#clip0_177_9946)">
<path d="M9.26332 2.51953L1.0101 10.7733C0.968577 10.815 0.938596 10.8676 0.924319 10.9241L0.00952849 14.5958C-0.0178355 14.7064 0.0146444 14.8239 0.0953087 14.9046C0.156342 14.9656 0.239505 14.9994 0.324571 14.9994C0.350627 14.9994 0.377277 14.9962 0.403213 14.9896L4.07499 14.0747C4.13221 14.0604 4.1842 14.0306 4.22573 13.9891L12.4797 5.73586L9.26332 2.51953Z" fill="black" fill-opacity="0.2"/>
<path d="M14.5252 1.39415L13.6065 0.475431C12.9924 -0.138592 11.9223 -0.137997 11.309 0.475431L10.1836 1.6008L13.3998 4.81702L14.5252 3.69165C14.8319 3.38505 15.0008 2.97697 15.0008 2.54296C15.0008 2.10894 14.8319 1.70086 14.5252 1.39415Z" fill="black" fill-opacity="0.2"/>
</g>
<defs>
<clipPath id="clip0_177_9946">
<rect width="15" height="15" fill="white"/>
</clipPath>
</defs>
</svg>
